<svg width="24" height="24" viewBox="0 0 24 24" fill="none" xmlns="http://www.w3.org/2000/svg">
  <path d="M20.0618 11.6827L20.1064 11.7253C20.1678 11.8051 20.2 11.8996 20.2 11.9968C20.2 12.1148 20.1526 12.2288 20.0631 12.3174L13.1907 18.8773L13.19 18.878C13.0154 19.0453 12.7397 19.0379 12.5746 18.8638C12.4063 18.6862 12.4153 18.4091 12.587 18.2464L12.5884 18.245L17.7681 13.2958L18.6697 12.4343H17.4227H4.13751C3.89412 12.4343 3.70001 12.2402 3.70001 11.9968C3.70001 11.7534 3.89412 11.5593 4.13751 11.5593H17.4227H18.6711L17.7678 10.6975L12.585 5.75301C12.5849 5.75293 12.5849 5.75286 12.5848 5.75278C12.4097 5.58472 12.4035 5.31011 12.5707 5.13376C12.7332 4.9623 13.01 4.95312 13.1875 5.12092C13.1877 5.12109 13.1879 5.12125 13.1881 5.12141L20.0618 11.6827Z" fill="#131947" stroke="#131947"/>
</svg>