<svg width="177" height="160" viewBox="0 0 177 160" fill="none" xmlns="http://www.w3.org/2000/svg">
  <g clipPath="url(#clip0_3028_15767)">
    <path d="M66.6874 150.184C75.6586 150.184 82.9311 147.756 82.9311 144.76C82.9311 141.764 75.6586 139.335 66.6874 139.335C57.7163 139.335 50.4437 141.764 50.4437 144.76C50.4437 147.756 57.7163 150.184 66.6874 150.184Z" fill="#E9E9E9"/>
    <path d="M67.517 132.583C67.393 131.001 67.4423 129.366 67.5152 127.736C67.5498 126.975 67.3183 126.65 66.5364 126.81C66.3304 126.852 66.1135 126.861 65.9021 126.855C65.297 126.841 65.0819 127.09 65.071 127.722C65.0126 131.048 64.8777 134.372 64.382 137.668C64.1359 139.295 64.0958 141.01 62.7798 142.28C62.5611 142.491 62.3789 142.756 62.0617 142.807C61.5222 142.894 61.1012 142.878 61.2032 142.095C61.6498 138.71 62.0672 135.321 62.4809 131.931C62.6596 130.458 62.645 128.974 62.6577 127.491C62.6632 126.821 62.275 126.532 61.7026 126.354C57.166 124.941 54.35 121.651 52.1992 117.654C51.8438 116.995 51.6396 116.256 51.3134 115.578C50.8668 114.646 50.351 114.561 49.6693 115.315C48.7343 116.35 47.7573 117.336 46.7348 118.287C45.9985 118.97 45.222 118.977 44.389 118.592C43.29 118.083 42.621 117.197 42.1362 116.101C41.1738 113.932 41.4418 111.741 41.8482 109.518C42.262 107.258 42.7468 105.027 43.6673 102.904C44.1248 101.85 43.6709 100.749 43.5834 99.6811C43.3319 96.6547 44.6825 94.9162 47.6954 94.5584C48.1729 94.5021 48.4463 94.3022 48.6104 93.8336C50.0029 89.8898 52.4945 86.8979 56.2091 84.8651C59.0197 83.3265 61.9141 83.272 65.0163 83.5935C68.9332 83.9986 71.4212 86.5 73.8089 89.0759C76.4426 91.9171 78.526 95.1978 80.0497 98.7892C80.2666 99.2997 80.5819 99.5176 81.1324 99.5849C83.2995 99.8464 85.4594 100.159 87.6229 100.442C88.3575 100.539 89.0282 100.795 89.6698 101.147C90.7124 101.723 90.9147 102.486 90.213 103.458C89.6297 104.266 88.9626 105.013 88.1916 105.66C86.2869 107.256 84.2893 108.731 82.1585 110.016C81.4058 110.47 80.9556 111.058 80.7606 111.914C80.1828 114.439 79.6524 116.971 78.4348 119.311C76.8272 122.403 74.4778 124.61 71.1715 125.775C70.5882 125.98 70.1325 126.236 70.2346 126.99C70.59 129.638 70.5536 132.303 70.395 134.961C70.2765 136.936 70.5098 138.887 70.6046 140.849C70.6174 141.121 70.6174 141.393 70.6174 141.664C70.6174 142.322 70.231 142.661 69.6313 142.77C69.0043 142.885 68.7017 142.532 68.514 141.969C67.6045 139.226 67.5279 136.391 67.5152 133.544C67.5152 133.242 67.5152 132.939 67.5152 132.589L67.517 132.583ZM51.5904 107.164C51.667 108.521 51.8237 109.872 52.1208 111.196C52.9848 115.031 55.0699 118.236 57.4722 121.262C58.0427 121.98 58.7773 122.565 59.6266 122.892C62.9986 124.19 66.5254 124.399 69.9794 123.578C72.5713 122.962 74.3903 121.026 75.7354 118.732C76.6705 117.137 77.3521 115.418 77.9391 113.68C78.9907 110.572 79.1092 107.353 78.7994 104.108C78.464 97.7465 75.7664 92.7127 70.3658 89.1958C69.8774 88.8779 69.3725 88.7907 68.8147 89.0269C68.4538 89.1795 68.0802 89.3012 67.7029 89.4047C63.5053 90.5492 59.242 90.898 54.9059 90.502C53.0322 90.3312 52.5838 90.7254 52.1208 92.5583C51.441 95.2523 51.4738 98.0153 51.3316 100.758C51.2204 102.895 51.1092 105.044 51.5904 107.162V107.164ZM44.4583 108.019C43.4686 109.863 43.0366 111.711 43.2572 113.718C43.4103 115.115 44.0427 115.496 45.2676 114.777C45.7032 114.521 46.0805 114.156 46.4468 113.8C47.1376 113.127 47.7902 112.414 48.4828 111.743C48.7343 111.5 49.1918 111.365 49.0205 110.92C48.851 110.481 48.4172 110.619 48.069 110.662C46.7859 110.822 45.8381 110.35 45.2165 109.213C45.0033 108.824 44.7426 108.461 44.4601 108.019H44.4583ZM81.9617 106.682C83.686 105.703 85.3683 104.777 87.0178 103.798C87.5719 103.469 87.3313 103.214 86.8319 103.024C85.33 102.45 83.7789 102.324 82.1914 102.422C81.7758 102.448 81.6008 102.593 81.6464 103.036C81.7648 104.201 81.8487 105.369 81.9581 106.682H81.9617ZM47.2361 106.137C47.2798 106.67 47.6152 106.933 48.0708 106.926C48.5265 106.92 48.8929 106.648 48.8692 106.137C48.8455 105.621 48.5411 105.311 47.9925 105.336C47.4821 105.36 47.2579 105.674 47.2361 106.137ZM46.3903 100.724C45.8982 100.797 45.643 101.089 45.6667 101.576C45.6886 102.043 46.0058 102.266 46.4414 102.275C46.9554 102.286 47.2124 101.954 47.2124 101.483C47.2124 100.984 46.8661 100.762 46.3922 100.722L46.3903 100.724ZM45.6285 100.262C46.1261 100.213 46.4578 99.9663 46.4505 99.4704C46.445 99.029 46.1734 98.7456 45.6959 98.7529C45.2566 98.7583 44.9322 98.9273 44.8976 99.4196C44.8611 99.9445 45.1819 100.166 45.6266 100.264L45.6285 100.262ZM49.2957 100.789C49.2501 100.364 49.0132 100.097 48.5356 100.103C48.0034 100.108 47.7829 100.406 47.7865 100.916C47.7902 101.414 48.0727 101.634 48.5283 101.629C49.0369 101.621 49.303 101.341 49.2957 100.789ZM46.9918 104.461C47.4256 104.388 47.6808 104.146 47.6699 103.67C47.6589 103.133 47.3436 102.909 46.846 102.946C46.3685 102.98 46.1425 103.303 46.1826 103.75C46.2208 104.195 46.5052 104.446 46.9918 104.461ZM48.3515 97.8973C47.7337 97.9027 47.4748 98.2061 47.4876 98.6875C47.5003 99.1216 47.7409 99.4105 48.2294 99.4087C48.7616 99.4068 49.0095 99.098 48.9913 98.6184C48.9749 98.1988 48.7653 97.8718 48.3515 97.8973ZM48.9275 102.273C48.5119 102.315 48.1839 102.484 48.1638 102.973C48.1419 103.483 48.388 103.761 48.9184 103.767C49.4032 103.772 49.6438 103.53 49.6511 103.055C49.6602 102.58 49.405 102.339 48.9293 102.275L48.9275 102.273Z" fill="#030304"/>
    <path d="M46.9007 89.421C46.9007 90.055 46.9135 90.6872 46.8952 91.3212C46.8861 91.6573 46.6966 91.9425 46.3448 91.9007C46.0039 91.8589 46.168 91.5137 46.1552 91.303C46.0933 90.2803 46.0404 89.2557 46.0021 88.233C45.9912 87.9387 45.9274 87.6226 46.1406 87.3629C46.2755 87.1975 46.4377 87.0177 46.6619 87.0704C46.8697 87.1194 46.8661 87.3411 46.8661 87.5245C46.8661 88.1585 46.8661 88.7907 46.8661 89.4247C46.877 89.4247 46.8898 89.4247 46.9007 89.4247V89.421Z" fill="#030304"/>
    <path d="M40.2168 97.4393C40.1712 97.7899 39.9962 98.0351 39.6208 97.9098C38.9664 97.6936 38.3121 97.4647 37.6942 97.165C37.3023 96.9743 37.1875 96.5655 37.3953 96.1604C37.6122 95.739 37.9585 95.9406 38.2519 96.066C38.7477 96.2767 39.2398 96.4983 39.7192 96.7435C39.9908 96.8816 40.2168 97.0887 40.215 97.4375L40.2168 97.4393Z" fill="#030304"/>
    <path d="M42.4663 92.8035C41.5185 91.8807 40.8496 90.8307 40.8624 89.4683C41.8594 90.3584 42.47 91.4338 42.4663 92.8035Z" fill="#030304"/>
    <path d="M51.5922 107.164C53.6974 107.365 55.808 107.538 57.9096 107.778C60.3319 108.054 62.7415 107.972 65.1565 107.712C67.7739 107.429 70.3584 106.958 72.9229 106.381C74.7547 105.968 76.5683 105.489 78.1322 104.371C78.3199 104.237 78.5751 104.195 78.8011 104.11C79.1109 107.354 78.9925 110.573 77.9408 113.681C77.3539 115.418 76.6722 117.137 75.7372 118.733C74.392 121.028 72.573 122.964 69.9811 123.58C66.5272 124.399 63.0003 124.192 59.6283 122.893C58.779 122.566 58.0444 121.981 57.4739 121.264C55.0698 118.239 52.9865 115.033 52.1226 111.198C51.8255 109.876 51.6687 108.522 51.5922 107.165V107.164Z" fill="#6ABFFB"/>
    <path d="M70.4551 94.5674C70.4424 95.2777 70.3367 95.9281 69.4217 95.968C68.5249 96.0062 67.7703 95.1342 67.7557 94.0643C67.7448 93.2286 68.4338 92.4911 69.2066 92.5147C69.9047 92.5365 70.4588 93.4484 70.4551 94.5674Z" fill="#030304"/>
    <path d="M61.8176 97.6867C61.803 98.4496 61.1815 99.04 60.416 99.0146C59.7015 98.991 58.8157 97.8102 58.8758 96.9255C58.9269 96.1517 59.4773 95.9282 60.1371 95.9082C61.0029 95.8828 61.8359 96.7838 61.8195 97.6867H61.8176Z" fill="#030304"/>
    <path d="M66.5255 100.722C65.9714 100.687 65.565 100.426 65.6142 99.8336C65.6652 99.2142 66.1154 98.8636 66.7187 98.8472C67.3166 98.8309 67.7212 99.1779 67.6793 99.7973C67.6356 100.46 67.1398 100.686 66.5255 100.72V100.722Z" fill="#030304"/>
  </g>
  <g clipPath="url(#clip1_3028_15767)">
    <path d="M124.743 82.6242C125.918 78.9904 127.446 75.4736 129.3 72.1376C129.458 71.8535 129.628 71.5603 129.898 71.3782C130.164 71.1993 130.498 71.1495 130.82 71.1418C132.092 71.1119 133.31 71.6645 134.413 72.3075C136.464 73.5038 138.292 75.0461 140.013 76.6804C143.225 79.7331 148.75 80.4428 150.726 84.3932C151.044 85.0293 151.342 85.6947 151.396 86.4006C151.452 87.1468 145.191 96.9126 143.108 99.3643" fill="#6AC0FD"/>
    <path d="M124.704 68.6189C124.431 68.0057 124.048 67.4694 123.902 66.8203C123.81 66.4117 123.844 66.0904 124.271 65.9339C124.664 65.7894 124.919 65.9982 125.098 66.3282C125.687 67.4086 126.091 68.5629 126.503 69.7138C126.593 69.9638 126.517 70.183 126.299 70.3233C126.06 70.4771 125.856 70.3541 125.67 70.1879C125.182 69.7542 125.036 69.1181 124.704 68.6189Z" fill="#131947"/>
    <path d="M124.831 71.0693C124.963 71.3027 125.084 71.5349 124.851 71.7751C124.577 72.0577 124.318 71.8845 124.09 71.7168C123.209 71.0697 122.338 70.4095 121.466 69.7499C121.159 69.5171 120.882 69.2162 121.145 68.8418C121.396 68.4859 121.808 68.4506 122.19 68.6834C123.222 69.3108 124.151 70.0548 124.83 71.0697L124.831 71.0693Z" fill="#131947"/>
    <path d="M122.896 73.1755C122.792 73.1857 122.614 73.2082 122.434 73.22C121.395 73.289 120.357 73.2382 119.319 73.1641C118.978 73.1396 118.622 73.1066 118.375 72.8463C118.072 72.5279 118.082 72.1581 118.559 72.1111C120.014 71.9687 121.465 72.1848 122.912 72.345C123.102 72.3661 123.242 72.5014 123.243 72.7196C123.244 72.9194 123.159 73.0661 122.896 73.1752L122.896 73.1755Z" fill="#131947"/>
    <path d="M143.774 70.8899C143.968 70.1013 144.315 69.386 144.346 68.5774C144.366 68.0687 144.252 67.6873 143.696 67.5755C143.184 67.4724 142.921 67.7698 142.776 68.2C142.303 69.6084 142.07 71.0726 141.827 72.534C141.774 72.8513 141.915 73.102 142.213 73.232C142.539 73.3745 142.761 73.189 142.951 72.9553C143.447 72.3447 143.482 71.5519 143.775 70.8897L143.774 70.8899Z" fill="#131947"/>
    <path d="M144.173 73.8659C144.065 74.171 143.969 74.4726 144.308 74.72C144.705 75.0115 144.982 74.7558 145.223 74.5124C146.151 73.5734 147.064 72.6207 147.978 71.6683C148.301 71.3323 148.571 70.9194 148.165 70.5156C147.779 70.1318 147.268 70.164 146.854 70.5134C145.738 71.4557 144.772 72.5199 144.173 73.8659Z" fill="#131947"/>
    <path d="M147.008 76.0554C147.137 76.049 147.36 76.0437 147.581 76.0256C148.864 75.921 150.119 75.6725 151.369 75.396C151.778 75.3052 152.205 75.2005 152.448 74.8426C152.746 74.4039 152.651 73.9601 152.057 73.99C150.25 74.081 148.53 74.6032 146.8 75.0576C146.574 75.1173 146.434 75.3054 146.482 75.569C146.526 75.8099 146.663 75.9714 147.007 76.0556L147.008 76.0554Z" fill="#131947"/>
    <path d="M125.443 83.0561C125.829 81.8625 126.253 80.681 126.714 79.5144C126.774 79.3621 126.835 79.2104 126.896 79.0587C126.904 79.0411 127.006 78.7903 126.931 78.9717C126.957 78.9089 126.984 78.8457 127.009 78.7829C127.13 78.4933 127.253 78.2047 127.378 77.9173C127.627 77.342 127.886 76.7711 128.155 76.204C128.691 75.0704 129.263 73.9539 129.871 72.8571C129.941 72.7308 130.017 72.6083 130.088 72.483C130.195 72.297 129.976 72.5844 130.125 72.4322C130.163 72.3933 130.212 72.351 130.245 72.308C130.305 72.2296 130.119 72.3618 130.272 72.2874C130.329 72.2595 130.386 72.2315 130.443 72.2042C130.612 72.1249 130.312 72.2133 130.498 72.1905C130.563 72.1827 130.626 72.1674 130.69 72.1602C130.823 72.1448 130.958 72.141 131.093 72.1423C131.107 72.1426 131.343 72.1528 131.179 72.1417C131.238 72.1456 131.297 72.1521 131.356 72.1588C131.629 72.1899 131.898 72.2453 132.162 72.3186C132.427 72.392 132.688 72.4904 132.947 72.5907C133.077 72.6411 132.781 72.5131 132.992 72.6106C133.058 72.641 133.125 72.6708 133.19 72.7019C133.322 72.7645 133.452 72.83 133.582 72.8979C134.112 73.1763 134.626 73.49 135.127 73.8184C135.627 74.1468 136.161 74.528 136.658 74.9095C136.907 75.1007 137.152 75.2974 137.396 75.4944C137.518 75.5927 137.247 75.3692 137.448 75.5375C137.511 75.5901 137.574 75.6426 137.636 75.6956C137.762 75.8012 137.886 75.9078 138.01 76.015C138.916 76.8013 139.749 77.6766 140.716 78.3921C141.549 79.009 142.458 79.5167 143.377 79.9933C144.306 80.4751 145.251 80.925 146.171 81.4246C146.619 81.6676 147.06 81.9225 147.487 82.2002C147.697 82.3359 147.902 82.4768 148.103 82.6248C148.198 82.6946 148.292 82.7658 148.385 82.8388C148.435 82.8784 148.486 82.9174 148.535 82.9592C148.375 82.8224 148.525 82.9529 148.561 82.984C148.929 83.3014 149.271 83.6487 149.572 84.0287C149.605 84.0706 149.751 84.2194 149.585 84.041C149.627 84.0859 149.661 84.1459 149.696 84.1963C149.763 84.2928 149.827 84.3912 149.888 84.4909C150.022 84.7088 150.139 84.9349 150.251 85.1645C150.281 85.2276 150.318 85.2925 150.342 85.3582C150.253 85.1167 150.335 85.3436 150.354 85.3884C150.405 85.5087 150.453 85.6304 150.497 85.7532C150.541 85.876 150.576 86.0002 150.612 86.1248C150.681 86.3589 150.58 85.8957 150.614 86.1367C150.623 86.2066 150.638 86.2756 150.646 86.3457C150.663 86.4839 150.625 86.6847 150.652 86.2284C150.652 86.2349 150.652 86.2411 150.651 86.2477C150.642 86.3624 150.727 85.9312 150.685 86.0513C150.671 86.0912 150.662 86.1328 150.648 86.1728C150.638 86.1993 150.627 86.2247 150.618 86.2511C150.739 85.9039 150.703 86.0502 150.666 86.1311C150.636 86.1971 150.607 86.2626 150.576 86.3277C150.496 86.4931 150.411 86.6562 150.325 86.8182C150.089 87.2602 149.839 87.695 149.585 88.1273C148.896 89.2985 148.174 90.4511 147.442 91.5954C146.641 92.8466 145.824 94.0874 144.986 95.3139C144.614 95.8582 144.237 96.3998 143.853 96.9356C143.767 97.0553 143.68 97.1748 143.594 97.2941C143.554 97.3484 143.514 97.4032 143.474 97.4573C143.437 97.508 143.347 97.6269 143.518 97.3989C143.497 97.4268 143.476 97.4554 143.455 97.4836C143.308 97.6814 143.159 97.8779 143.007 98.072C142.882 98.231 142.756 98.3888 142.625 98.5429C142.309 98.9156 142.267 99.5225 142.538 99.9431C142.756 100.28 143.26 100.575 143.59 100.185C144.333 99.3091 144.993 98.3588 145.65 97.4179C146.51 96.1851 147.343 94.9337 148.161 93.6726C148.955 92.4477 149.736 91.2128 150.487 89.9606C150.974 89.1493 151.485 88.3314 151.872 87.4655C151.947 87.2965 152.026 87.1255 152.077 86.9468C152.183 86.5782 152.135 86.1984 152.056 85.8269C151.797 84.618 151.2 83.4614 150.429 82.491C149.099 80.816 147.116 79.8019 145.241 78.8588C144.286 78.3781 143.324 77.9052 142.407 77.3533C141.948 77.0773 141.501 76.7818 141.075 76.4561C141.023 76.4156 140.971 76.375 140.919 76.3338C140.89 76.3111 140.711 76.1818 140.883 76.3059C140.795 76.2424 140.715 76.1623 140.634 76.0901C140.386 75.8676 140.148 75.6339 139.903 75.4077C138.928 74.5062 137.916 73.6407 136.85 72.8474C135.864 72.1131 134.822 71.415 133.709 70.8864C133.148 70.6202 132.565 70.3848 131.956 70.2566C131.39 70.1376 130.743 70.0663 130.177 70.2018C129.487 70.3671 129.062 70.8301 128.723 71.4285C128.403 71.9941 128.099 72.5702 127.802 73.148C126.594 75.495 125.543 77.9256 124.651 80.4108C124.439 81.0012 124.237 81.5953 124.044 82.1922C123.905 82.6209 124.054 83.2995 124.484 83.5315C124.915 83.7634 125.304 83.4835 125.443 83.0552L125.443 83.0561Z" fill="#131947"/>
    <path d="M125.918 83.8512C126.276 82.7446 126.669 81.6493 127.096 80.5677C127.152 80.4265 127.208 80.2858 127.265 80.1452C127.272 80.1289 127.366 79.8964 127.298 80.0645C127.322 80.0063 127.346 79.9477 127.37 79.8895C127.481 79.621 127.595 79.3535 127.711 79.087C127.943 78.5537 128.183 78.0244 128.432 77.4986C128.929 76.4476 129.459 75.4126 130.023 74.3957C130.088 74.2786 130.158 74.165 130.224 74.0489C130.323 73.8765 130.12 74.1429 130.258 74.0018C130.294 73.9657 130.339 73.9265 130.369 73.8867C130.425 73.8139 130.253 73.9365 130.395 73.8675C130.448 73.8417 130.5 73.8157 130.554 73.7904C130.709 73.7169 130.432 73.7988 130.604 73.7777C130.664 73.7704 130.723 73.7563 130.782 73.7496C130.906 73.7353 131.031 73.7318 131.156 73.733C131.169 73.7333 131.387 73.7428 131.235 73.7325C131.29 73.7361 131.345 73.7421 131.4 73.7483C131.653 73.7772 131.902 73.8285 132.147 73.8965C132.392 73.9645 132.634 74.0558 132.874 74.1487C132.995 74.1955 132.721 74.0768 132.916 74.1671C132.978 74.1954 133.039 74.223 133.1 74.2519C133.222 74.3099 133.343 74.3706 133.463 74.4335C133.955 74.6916 134.431 74.9825 134.895 75.2869C135.36 75.5914 135.854 75.9448 136.315 76.2985C136.546 76.4757 136.773 76.6581 136.999 76.8408C137.112 76.9318 136.861 76.7247 137.047 76.8807C137.106 76.9295 137.164 76.9781 137.222 77.0273C137.338 77.1251 137.454 77.224 137.568 77.3234C138.409 78.0523 139.181 78.8638 140.077 79.5272C140.85 80.0991 141.692 80.5698 142.544 81.0117C143.406 81.4583 144.282 81.8754 145.134 82.3386C145.55 82.5639 145.959 82.8003 146.355 83.0577C146.549 83.1835 146.74 83.3142 146.926 83.4513C147.014 83.516 147.101 83.582 147.187 83.6497C147.234 83.6864 147.281 83.7226 147.326 83.7613C147.178 83.6345 147.317 83.7555 147.351 83.7844C147.691 84.0786 148.008 84.4006 148.288 84.7529C148.319 84.7917 148.454 84.9297 148.3 84.7643C148.339 84.8059 148.371 84.8615 148.403 84.9082C148.464 84.9977 148.524 85.0889 148.581 85.1814C148.705 85.3834 148.814 85.593 148.917 85.8059C148.945 85.8644 148.979 85.9245 149.002 85.9854C148.919 85.7616 148.995 85.9719 149.013 86.0135C149.06 86.125 149.105 86.2378 149.145 86.3516C149.186 86.4655 149.218 86.5806 149.252 86.6962C149.316 86.9132 149.222 86.4837 149.254 86.7072C149.262 86.772 149.275 86.8359 149.283 86.9009C149.299 87.0291 149.264 87.2152 149.289 86.7922C149.289 86.7983 149.288 86.804 149.288 86.8101C149.28 86.9164 149.358 86.5167 149.32 86.628C149.307 86.665 149.298 86.7035 149.285 86.7407C149.276 86.7652 149.266 86.7888 149.257 86.8133C149.37 86.4913 149.336 86.627 149.302 86.702C149.274 86.7632 149.247 86.824 149.218 86.8843C149.145 87.0376 149.066 87.1889 148.986 87.339C148.767 87.7488 148.535 88.1519 148.299 88.5526C147.661 89.6385 146.992 90.7071 146.313 91.768C145.571 92.928 144.813 94.0782 144.036 95.2153C143.691 95.72 143.342 96.2221 142.985 96.7188C142.906 96.8298 142.825 96.9406 142.745 97.0511C142.708 97.1016 142.671 97.1523 142.634 97.2025C142.6 97.2494 142.516 97.3597 142.675 97.1483C142.655 97.1743 142.636 97.2007 142.617 97.2268C142.48 97.4102 142.342 97.5924 142.201 97.7724C142.086 97.9198 141.968 98.0661 141.847 98.209C141.554 98.5545 141.515 99.1172 141.767 99.5071C141.968 99.8192 142.436 100.093 142.742 99.7317C143.431 98.9193 144.042 98.0383 144.651 97.166C145.449 96.023 146.221 94.8629 146.979 93.6937C147.716 92.5581 148.439 91.4132 149.136 90.2524C149.587 89.5002 150.061 88.7419 150.42 87.9391C150.49 87.7825 150.563 87.6239 150.61 87.4582C150.708 87.1165 150.664 86.7644 150.59 86.42C150.351 85.2992 149.797 84.2269 149.082 83.3273C147.849 81.7744 146.011 80.8342 144.273 79.9599C143.387 79.5143 142.495 79.0758 141.645 78.5641C141.219 78.3083 140.805 78.0343 140.41 77.7324C140.362 77.6948 140.314 77.6572 140.265 77.619C140.239 77.5979 140.072 77.478 140.232 77.5931C140.15 77.5342 140.076 77.46 140.001 77.393C139.771 77.1867 139.55 76.9701 139.324 76.7603C138.42 75.9246 137.482 75.1221 136.493 74.3867C135.579 73.7059 134.613 73.0588 133.581 72.5687C133.061 72.3219 132.52 72.1036 131.956 71.9848C131.431 71.8745 130.831 71.8084 130.307 71.934C129.667 72.0872 129.273 72.5165 128.959 73.0713C128.662 73.5956 128.38 74.1297 128.105 74.6654C126.985 76.8413 126.01 79.0947 125.183 81.3988C124.987 81.946 124.799 82.4969 124.62 83.0502C124.492 83.4477 124.63 84.0768 125.029 84.2919C125.428 84.507 125.789 84.2475 125.918 83.8503L125.918 83.8512Z" fill="#131947"/>
    <path d="M144.478 98.9899C144.318 98.5274 143.949 98.1686 143.584 97.8387C141.128 95.6221 138.278 93.8929 135.577 91.9797C131.374 89.0025 125.893 81.8953 123.997 82.0624C121.237 82.0565 118.475 81.758 115.772 81.174C114.316 80.8594 112.836 80.4597 111.363 80.638C109.89 80.8162 108.396 81.7464 108.098 83.1892C107.851 84.3809 108.455 85.5821 109.104 86.6246C110.843 89.4179 113.038 91.9045 115.289 94.3134C118.993 98.2781 122.921 102.108 127.521 104.997C129.262 106.091 131.156 107.064 133.201 107.235C135.222 107.404 137.244 106.763 138.963 105.718C140.683 104.672 142.129 103.241 143.452 101.73C144.126 100.96 144.815 99.9641 144.477 98.9897L144.478 98.9899ZM129.389 90.8456C129.86 90.7587 130.179 90.9089 130.324 91.3599C130.47 91.8126 130.321 92.1153 129.861 92.2604C129.358 92.4196 129.036 92.2321 128.891 91.7427C128.753 91.2745 129.008 91.0131 129.389 90.8456ZM127.634 89.099C128.095 88.9904 128.494 89.0924 128.656 89.5654C128.809 90.0101 128.673 90.4048 128.183 90.5527C127.768 90.6778 127.397 90.5643 127.225 90.1296C127.045 89.6754 127.191 89.3194 127.634 89.099ZM126.761 91.4108C126.899 91.8655 126.719 92.1641 126.321 92.3444C125.849 92.4552 125.508 92.2865 125.35 91.8686C125.192 91.4487 125.321 91.081 125.772 90.9253C126.241 90.7632 126.605 90.8968 126.761 91.4111L126.761 91.4108ZM126.125 87.5729C126.576 87.4204 126.886 87.5989 127.066 87.9879C127.252 88.5072 127.09 88.8558 126.612 89.019C126.182 89.1656 125.844 89.044 125.68 88.5745C125.512 88.0938 125.624 87.743 126.125 87.5731L126.125 87.5729ZM125.384 89.7159C125.522 90.1706 125.341 90.4693 124.944 90.6496C124.472 90.7604 124.131 90.5917 123.973 90.1738C123.815 89.7539 123.944 89.3862 124.395 89.2304C124.864 89.0684 125.228 89.202 125.384 89.7163L125.384 89.7159ZM124.752 85.8623C125.134 85.7115 125.438 85.9549 125.59 86.3472C125.763 86.7948 125.627 87.1633 125.125 87.3296C124.663 87.4824 124.343 87.2837 124.191 86.877C124.022 86.4248 124.17 86.0593 124.752 85.8625L124.752 85.8623ZM123.125 87.6276C123.6 87.5669 123.911 87.7344 124.03 88.1924C124.15 88.6524 123.985 88.9458 123.517 89.0657C123.006 89.1966 122.694 88.9918 122.577 88.4956C122.466 88.0208 122.735 87.774 123.124 87.628L123.125 87.6276ZM123.172 84.1185C123.622 83.9651 123.968 84.1493 124.117 84.565C124.283 85.0319 124.049 85.3685 123.595 85.5692C123.142 85.6146 122.768 85.5042 122.632 84.9962C122.505 84.5204 122.757 84.2599 123.172 84.1185ZM117.168 85.9076C116.716 85.9531 116.341 85.8426 116.205 85.3347C116.078 84.8589 116.33 84.5984 116.745 84.457C117.195 84.3036 117.542 84.4878 117.69 84.9035C117.857 85.3704 117.623 85.707 117.168 85.9076ZM118.698 87.6682C118.236 87.821 117.915 87.6224 117.763 87.2156C117.594 86.7634 117.742 86.398 118.325 86.2011C118.707 86.0503 119.011 86.2938 119.163 86.686C119.336 87.1336 119.2 87.5021 118.698 87.6685L118.698 87.6682ZM120.452 85.6512C120.015 85.7736 119.684 85.6339 119.546 85.1563C119.405 84.667 119.536 84.3235 120.047 84.1817C120.506 84.0541 120.805 84.2499 120.964 84.6476C121.121 85.1761 120.939 85.5146 120.452 85.6509L120.452 85.6512ZM120.185 89.3575C119.755 89.5041 119.417 89.3825 119.254 88.913C119.086 88.4322 119.197 88.0815 119.699 87.9115C120.15 87.759 120.459 87.9376 120.64 88.3266C120.826 88.8459 120.664 89.1945 120.185 89.3577L120.185 89.3575ZM121.936 87.2689C121.515 87.3708 121.15 87.2371 121.003 86.7939C120.848 86.3308 121.015 85.9838 121.469 85.788C121.936 85.705 122.329 85.8286 122.464 86.3098C122.592 86.7618 122.434 87.1483 121.936 87.2689ZM125.581 95.5404C125.167 95.6654 124.795 95.552 124.623 95.1173C124.572 94.9881 123.373 93.7187 123.081 93.3609C122.812 93.031 121.739 91.7649 121.491 91.5138C120.012 90.0175 120.742 90.2937 121.066 89.9028C121.444 89.6846 122.026 89.9551 122.843 90.9641C123.089 91.2673 124.23 92.4405 124.473 92.8037C124.706 93.1527 125.919 94.1578 126.055 94.5527C126.208 94.9975 126.072 95.3921 125.581 95.54L125.581 95.5404ZM127.053 93.5264C126.895 93.1065 127.024 92.7388 127.475 92.5831C127.944 92.421 128.308 92.5546 128.464 93.0689C128.602 93.5236 128.421 93.8223 128.024 94.0026C127.552 94.1133 127.211 93.9447 127.053 93.5268L127.053 93.5264ZM127.15 97.455C126.678 97.5657 126.336 97.3971 126.179 96.9791C126.021 96.5592 126.15 96.1916 126.601 96.0358C127.07 95.8737 127.434 96.0073 127.59 96.5217C127.728 96.9764 127.547 97.275 127.15 97.4553L127.15 97.455ZM129.612 95.5943C129.14 95.705 128.799 95.5364 128.642 95.1184C128.484 94.6985 128.613 94.3309 129.063 94.1751C129.533 94.013 129.896 94.1466 130.052 94.661C130.19 95.1157 130.01 95.4143 129.612 95.5946L129.612 95.5943ZM131.931 93.9739C131.467 94.1105 131.117 93.961 130.936 93.5521C130.755 93.1416 130.863 92.7668 131.304 92.5865C131.763 92.3987 132.133 92.5119 132.318 93.0172C132.482 93.4638 132.318 93.7722 131.931 93.9739ZM133.169 97.0914C132.076 97.4545 131.192 97.4843 130.924 97.0471C130.838 96.6182 131.281 96.1646 132.5 95.7426C133.81 95.2889 134.638 95.3244 134.851 95.7639C135.061 96.1985 134.262 96.7281 133.169 97.0914Z" fill="#131947"/>
  </g>
  <g clipPath="url(#clip2_3028_15767)">
    <path d="M63.8548 36.694C64.4756 37.2481 67.4393 39.8656 67.9656 40.8896C69.312 43.502 70.0453 46.3417 69.3273 49.2018C69.0667 50.8233 68.1598 53.0884 66.4506 54.8759C64.8665 56.5307 62.8073 58.4766 60.8911 59.8785C57.4753 62.3811 53.9598 63.4179 53.3594 63.4511C50.825 63.589 48.4259 63.2468 46.2466 61.7555C44.0418 60.2463 42.8129 58.2033 42.4833 55.6012C41.98 51.6303 42.2176 47.7206 44.3177 44.2145C45.7689 41.7911 47.754 39.7379 49.6702 37.6516C52.5163 34.5541 56.0037 33.7777 59.9663 34.5387C60.8017 34.6996 63.1701 36.0888 63.8522 36.6966L63.8548 36.694ZM64.6238 54.3831C65.8221 53.0909 66.7137 51.6149 67.1659 49.9117C69.2354 42.1052 62.4905 36.1169 55.881 36.4361C54.4222 36.5076 53.0528 36.9826 51.9338 37.9453C49.223 40.2793 46.9492 42.9658 45.4495 46.2472C45.0433 46.9341 44.8159 47.6951 44.6038 48.4535C43.8655 51.1093 43.6483 53.783 44.4429 56.4669C44.6447 57.1487 44.89 57.856 45.7331 58.022C47.4985 58.3719 48.9216 59.3576 50.1913 60.5501C50.8939 61.209 51.6323 61.3928 52.552 61.3213C57.6822 60.9179 61.4686 58.2059 64.6238 54.3831Z" fill="#131947"/>
    <path d="M69.5396 41.6786C69.9535 41.6556 71.9259 41.5331 72.4726 41.7093C73.8701 42.1561 75.1323 42.8992 75.8885 44.1633C76.3688 44.8298 76.8491 45.9483 76.8772 47.1817C76.9028 48.3257 76.8619 49.7379 76.6831 50.91C76.3611 52.9989 75.4848 54.6077 75.2855 54.8299C74.4373 55.7722 73.4716 56.5 72.1737 56.74C70.8605 56.9851 69.7057 56.6991 68.671 55.8947C67.0921 54.669 65.7916 53.2058 65.296 51.2267C64.9536 49.8579 64.9281 48.433 64.8668 47.0208C64.7774 44.9243 65.7354 43.4176 67.4038 42.2889C67.7563 42.0514 69.0823 41.7041 69.5371 41.6786H69.5396Z" fill="#131947"/>
    <path d="M56.6551 43.7751C56.9821 43.8083 58.5304 43.9692 58.9341 44.1735C59.9637 44.6995 60.8502 45.4401 61.2769 46.5203C61.5656 47.0999 61.7955 48.032 61.6575 48.9947C61.5298 49.8885 61.3177 50.9815 61.0265 51.8701C60.5079 53.4534 59.6213 54.5923 59.4348 54.7404C58.6556 55.3661 57.8099 55.8053 56.7701 55.8283C55.7175 55.8513 54.8565 55.4784 54.1539 54.7226C53.0808 53.5683 52.2582 52.2608 52.1279 50.6572C52.0359 49.5489 52.1994 48.438 52.3348 47.3298C52.5341 45.6852 53.4717 44.6382 54.9152 43.9717C55.2193 43.8313 56.2974 43.7317 56.6551 43.77V43.7751Z" fill="#6AC0FD"/>
    <path d="M53.6687 34.8888C53.5461 34.3142 53.3187 33.5507 53.1449 33.2979C52.0157 31.6303 50.5109 30.6727 48.4108 30.7621C46.9954 30.8234 45.5697 30.8464 44.2029 31.1911C42.2229 31.6865 40.7589 32.9838 39.5326 34.5645C38.7303 35.5987 38.4416 36.7529 38.6869 38.0655C38.9296 39.3628 39.6552 40.328 40.598 41.1759C40.8202 41.375 42.4298 42.2509 44.5197 42.5727C44.7854 42.6136 45.0613 42.6468 45.3449 42.6723C46.6377 40.8924 48.1732 39.2785 49.6703 37.6493C50.889 36.3239 52.2277 35.425 53.6687 34.8888Z" fill="#131947"/>
    <path d="M55.2936 49.0564C55.8684 49.0385 56.3922 48.8316 56.4407 48.1703C56.4842 47.5982 55.9987 47.348 55.5133 47.3556C54.941 47.3633 54.3917 47.5931 54.3381 48.2698C54.2895 48.8776 54.7571 49.0206 55.2936 49.0589V49.0564Z" fill="#131947"/>
    <path d="M48.9625 46.0227C49.0034 46.5309 49.3611 46.702 49.8107 46.7096C50.4137 46.7199 50.9093 46.4568 50.986 45.8312C51.032 45.4507 50.7688 45.106 50.3038 45.106C49.6728 45.1085 49.1695 45.3332 48.9651 46.0227H48.9625Z" fill="#131947"/>
  </g>
    <path d="M99.5393 45.5218C95.8804 44.6886 94.972 40.4432 94.056 37.6353C93.9351 37.2624 93.8321 36.8716 93.899 36.4858C93.9737 36.0693 94.2361 35.7119 94.496 35.375C96.2972 33.017 98.173 30.6668 100.543 28.8668C103.764 26.4188 106.101 24.3308 109.474 22.0937C110.856 21.1783 112.132 20.1086 113.272 18.9129C113.504 18.6712 113.746 18.414 114.07 18.3266C114.561 18.1955 115.055 18.5015 115.462 18.8049C117.711 20.4891 119.602 22.644 120.976 25.0868C122.041 26.9768 122.803 29.2319 122.134 31.2916C121.514 33.2022 119.808 34.529 118.192 35.7376C112.516 39.9804 106.546 44.3518 99.5393 45.5218Z" fill="#6ABFFB"/>
    <path d="M110.851 40.7369C109.194 39.4338 107.826 37.7032 106.415 36.1365C105.13 34.7054 103.746 33.3741 102.478 31.9251C100.982 30.215 99.4455 28.3743 98.4839 26.2853C98.3307 25.955 98.1751 25.6069 98.1399 25.2382C98.0696 24.5009 98.6747 24.1963 99.1919 23.7764C100.495 22.7166 101.881 21.7719 103.339 20.9475L102.242 21.0269C103.942 21.4493 105.315 23.0852 106.455 24.3396C107.67 25.6786 108.78 27.1071 109.867 28.5561C112.119 31.5616 115.232 34.3879 118.358 36.4232C119.799 37.3627 122.061 34.7156 120.668 33.8068C117.763 31.9149 114.823 29.3036 112.654 26.5695C110.485 23.8353 108.439 20.6506 105.438 18.7331C104.853 18.3593 104.153 17.9369 103.437 17.9779C102.29 18.0419 100.819 19.3245 99.8898 19.9645C97.8587 21.3674 95.2025 23.0724 95.1598 25.8501C95.1322 27.5705 96.0913 29.1347 97.0202 30.5043C98.1199 32.1274 99.3676 33.6557 100.676 35.1047C101.868 36.4232 103.134 37.6648 104.324 38.9858C105.662 40.4758 106.97 42.1091 108.546 43.3507C109.902 44.4157 112.194 41.7865 110.856 40.7343L110.851 40.7369Z" fill="#1F222A"/>
    <path d="M99.6481 43.9715C98.0041 43.5364 97.3132 42.1903 96.7408 40.6763C96.4634 39.9409 96.2516 39.1826 96.0171 38.432C95.8784 37.9841 95.7195 37.6813 95.8986 37.2411C96.1432 36.6355 96.8164 36.0172 97.2173 35.5057C100.377 31.4827 104.588 28.3554 108.69 25.3554C109.666 24.6429 110.69 23.9991 111.651 23.2662C112.18 22.8617 112.692 22.4342 113.181 21.9838C113.464 21.7242 114.17 20.7369 114.52 20.6555C114.687 20.6173 114.755 20.6682 114.989 20.854C115.206 21.027 115.415 21.2051 115.622 21.3883C116.038 21.7522 116.439 22.1339 116.822 22.5334C117.675 23.4266 118.444 24.4418 119.082 25.5004C120.327 27.5691 121.086 29.9483 119.478 32.0374C118.045 33.895 115.741 35.2538 113.867 36.6177C109.308 39.9384 104.469 42.9461 98.8538 43.9512C96.9274 44.2947 98.7278 47.7121 100.49 47.3966C106.686 46.2897 112.062 42.7781 117.052 39.0834C119.293 37.4243 122.055 35.7474 123.169 33.0502C124.382 30.1112 123.184 26.8872 121.651 24.3248C120.118 21.7624 117.947 19.0321 115.347 17.4977C114.157 16.7954 112.985 16.8284 111.973 17.7928C110.718 18.9913 109.492 20.0932 108.055 21.0728C102.843 24.6327 97.7191 28.6277 93.8486 33.6634C92.7416 35.1062 92.2776 36.2716 92.8299 38.0783C93.1955 39.2768 93.5586 40.4778 94.0175 41.6433C95.0539 44.2718 96.8845 46.6306 99.6985 47.3737C102.006 47.9818 101.403 44.4372 99.6481 43.9741V43.9715Z" fill="#1F222A"/>
  <defs>
  <clipPath id="clip0_3028_15767">
  <rect width="53.3333" height="66.7485" fill="white" transform="translate(37.2935 83.4355)"/>
  </clipPath>
  <clipPath id="clip1_3028_15767">
  <rect width="40.2454" height="40.5726" fill="white" transform="translate(123.674 55.9507) rotate(30)"/>
  </clipPath>
  <clipPath id="clip2_3028_15767">
  <rect width="38.2822" height="32.7198" fill="white" transform="translate(38.6024 30.7568)"/>
  </clipPath>
  </defs>
</svg>