<svg width="172" height="38" viewBox="0 0 172 38" fill="none" xmlns="http://www.w3.org/2000/svg">
  <path d="M14.2515 15.1689V18.206H8.83198V33.7287H5.39541V18.206H0V15.1689H14.2515Z" fill="#131947"/>
  <path d="M25.9559 26.7572C25.9559 29.3758 25.4473 31.2307 24.43 32.3218C23.4128 33.4129 21.6762 33.9595 19.2202 33.9618C16.7298 33.9618 14.9795 33.4241 13.9691 32.3488C12.9588 31.2734 12.4547 29.4096 12.457 26.7572C12.457 24.1633 12.9702 22.3186 13.9966 21.223C15.023 20.1274 16.7642 19.5808 19.2202 19.583C21.6945 19.583 23.4357 20.1207 24.4438 21.196C25.4519 22.2714 25.9559 24.1251 25.9559 26.7572ZM15.7665 26.7302C15.7665 28.4512 15.9853 29.5817 16.4228 30.1216C16.8604 30.6615 17.7929 30.9326 19.2202 30.9348C20.6086 30.9348 21.525 30.6593 21.9695 30.1081C22.4162 29.5547 22.6568 28.4208 22.6568 26.7336C22.6568 25.0463 22.4403 23.8585 22.0141 23.3152C21.588 22.7719 20.6395 22.502 19.2305 22.502C17.8215 22.502 16.8936 22.782 16.4469 23.3422C16.0001 23.9024 15.7665 25.0362 15.7665 26.737V26.7302Z" fill="#131947"/>
  <path d="M31.514 37.9793H28.2012V19.8717H31.0845L31.2838 21.1338H31.4281C31.974 20.6214 32.6256 20.2302 33.3388 19.9864C34.1466 19.7128 34.9966 19.5792 35.851 19.5916C37.7503 19.5916 39.1054 20.154 39.9164 21.2789C40.7275 22.4037 41.1318 24.2304 41.1296 26.7591C41.1296 29.2989 40.6255 31.1347 39.6175 32.2662C38.6094 33.3978 36.9541 33.9602 34.6516 33.9535C34.0593 33.9563 33.4676 33.9145 32.8818 33.8286C32.4124 33.7657 31.9515 33.6525 31.5072 33.4912L31.514 37.9793ZM37.8201 26.7591C37.8201 25.1348 37.6059 24.019 37.1775 23.4116C36.7514 22.8041 35.9163 22.5004 34.6791 22.5004C34.1118 22.499 33.5465 22.5647 32.9952 22.6962C32.4795 22.8212 31.9819 23.0094 31.514 23.2563V30.4879C31.8917 30.6498 32.289 30.7632 32.6962 30.8253C33.202 30.9039 33.7135 30.9412 34.2255 30.9367C35.6895 30.9367 36.654 30.6521 37.1191 30.0829C37.5842 29.5138 37.8178 28.4058 37.8201 26.7591Z" fill="#131947"/>
  <path d="M52.6619 15.0752H55.9713V33.7126H53.0606L52.8612 32.4235H52.7169C52.1825 32.9477 51.5339 33.3457 50.8199 33.5877C50.0057 33.8527 49.1517 33.9805 48.294 33.9657C46.4108 33.9657 45.0648 33.4032 44.2561 32.2784C43.4473 31.1536 43.043 29.3122 43.043 26.7544C43.043 24.2325 43.5424 22.4069 44.5413 21.2775C45.5402 20.1482 47.1909 19.5858 49.4934 19.5903C50.0687 19.5889 50.6432 19.6318 51.2117 19.7185C51.7025 19.7864 52.1857 19.8994 52.6551 20.056L52.6619 15.0752ZM49.947 22.4991C48.4831 22.4991 47.5185 22.7893 47.0534 23.3697C46.5884 23.9501 46.3593 25.075 46.3661 26.7442C46.3661 28.3707 46.5689 29.4742 46.9813 30.0512C47.3937 30.6283 48.2322 30.9219 49.5072 30.9219C50.0851 30.9258 50.6617 30.8647 51.2254 30.7396C51.7351 30.6263 52.2258 30.4423 52.6825 30.193V22.9783C52.2791 22.8092 51.857 22.6869 51.4248 22.6138C50.9364 22.535 50.442 22.4977 49.947 22.5025V22.4991Z" fill="#131947"/>
  <path d="M62.407 33.9753C60.9636 33.9753 59.9029 33.6243 59.2247 32.9224C58.5466 32.2205 58.2087 31.1238 58.2109 29.6323C58.2109 28.1003 58.6153 27.0159 59.4241 26.3793C60.2328 25.7426 61.6223 25.4209 63.5926 25.4141C64.155 25.4141 64.7171 25.4422 65.2765 25.4985C65.7755 25.5433 66.2713 25.6177 66.7611 25.7212V24.5435C66.7869 24.2427 66.7377 23.9402 66.618 23.6622C66.4983 23.3841 66.3115 23.1388 66.0738 22.9474C65.6168 22.6099 64.8916 22.4412 63.9053 22.4412C63.0084 22.4412 62.2146 22.4716 61.5204 22.5256C60.8543 22.5796 60.1921 22.6731 59.5375 22.8057V20.0892C60.3128 19.9125 61.0992 19.7863 61.8915 19.7112C62.7369 19.628 63.7404 19.5853 64.902 19.583C66.634 19.583 67.9284 19.9711 68.7853 20.7472C69.6421 21.5233 70.0705 22.6864 70.0705 24.2364V33.7087H67.0154L66.8745 32.5006H66.8161C66.1779 32.9641 65.4709 33.3283 64.7198 33.5804C63.9768 33.8381 63.195 33.9716 62.407 33.9753ZM64.0084 27.7527C62.9775 27.7527 62.273 27.8652 61.895 28.0901C61.5135 28.323 61.3245 28.765 61.3245 29.4231C61.3245 30.0811 61.4791 30.5096 61.7953 30.7729C62.1115 31.0361 62.6441 31.1812 63.407 31.1812C64.0004 31.1749 64.5905 31.0944 65.1631 30.9416C65.7229 30.8038 66.264 30.601 66.7749 30.3375V27.9788C66.3178 27.9012 65.8642 27.8472 65.4209 27.81C64.9775 27.7729 64.4861 27.7527 63.9947 27.7527H64.0084Z" fill="#131947"/>
  <path d="M75.7464 33.7159H72.4336V19.8805H75.2894L75.4303 21.2843H75.5162C76.1441 20.7268 76.8757 20.2936 77.6709 20.0087C78.5485 19.7193 79.4705 19.5812 80.3961 19.6004C81.9563 19.6004 83.1454 19.984 83.9633 20.7511C84.7812 21.5182 85.1901 22.6487 85.1901 24.1425V33.7261H81.8807V24.5508C81.9001 24.2626 81.8495 23.974 81.733 23.7088C81.6164 23.4436 81.4374 23.2094 81.2106 23.0255C80.631 22.6428 79.9383 22.46 79.2414 22.5058C78.6238 22.505 78.0089 22.5856 77.4132 22.7454C76.8287 22.901 76.2715 23.1422 75.7602 23.4608L75.7464 33.7159Z" fill="#131947"/>
  <path d="M90.8719 33.7255H87.5625V19.8901H90.6142L90.7585 20.9294H90.8444C91.5109 20.5162 92.225 20.182 92.9717 19.934C93.6102 19.7189 94.2795 19.605 94.9546 19.5965C95.6409 19.5764 96.3244 19.6911 96.9649 19.934C97.5145 20.157 97.9862 20.5322 98.3224 21.0138H98.4083C99.1209 20.5614 99.8933 20.2072 100.704 19.961C101.493 19.7161 102.316 19.5887 103.144 19.583C104.519 19.583 105.55 19.9475 106.237 20.6763C106.924 21.4052 107.268 22.4896 107.268 23.9294V33.7154H103.958V24.3647C103.981 24.1074 103.945 23.8484 103.853 23.6063C103.762 23.3642 103.617 23.1449 103.429 22.9643C102.944 22.6261 102.352 22.4671 101.759 22.5154C101.289 22.5177 100.82 22.5743 100.364 22.6842C99.9104 22.7887 99.4693 22.9391 99.0475 23.133C99.069 23.2339 99.0794 23.3369 99.0784 23.4401V33.7255H95.7415V24.3647C95.7636 24.1077 95.728 23.8491 95.6371 23.6071C95.5463 23.3651 95.4024 23.1457 95.2157 22.9643C94.7297 22.6272 94.1386 22.4683 93.5456 22.5154C93.117 22.5184 92.6903 22.5705 92.274 22.6707C91.7876 22.7867 91.3144 22.9506 90.8616 23.16L90.8719 33.7255Z" fill="#131947"/>
  <path d="M113.587 33.9753C112.141 33.9753 111.08 33.6243 110.404 32.9224C109.729 32.2205 109.391 31.1238 109.391 29.6323C109.391 28.1003 109.795 27.0159 110.604 26.3793C111.412 25.7426 112.807 25.4209 114.786 25.4141C115.348 25.4142 115.91 25.4423 116.47 25.4985C116.968 25.543 117.462 25.6174 117.951 25.7212V24.5435C117.977 24.2427 117.928 23.9402 117.808 23.6622C117.688 23.3841 117.502 23.1388 117.264 22.9474C116.806 22.6099 116.083 22.4412 115.095 22.4412C114.202 22.4412 113.405 22.4716 112.714 22.5256C112.047 22.5796 111.383 22.6731 110.727 22.8057V20.0892C111.504 19.9125 112.292 19.7863 113.085 19.7112C113.93 19.628 114.934 19.5853 116.095 19.583C117.827 19.583 119.121 19.9711 119.975 20.7472C120.83 21.5233 121.258 22.6864 121.261 24.2364V33.7087H118.205L118.075 32.5006H118.016C117.378 32.9634 116.671 33.3275 115.92 33.5804C115.17 33.8401 114.382 33.9736 113.587 33.9753ZM115.185 27.7527C114.158 27.7527 113.454 27.8652 113.071 28.0901C112.69 28.323 112.501 28.765 112.501 29.4231C112.477 29.668 112.506 29.9151 112.588 30.1479C112.669 30.3807 112.8 30.5938 112.972 30.7729C113.288 31.0428 113.824 31.1812 114.587 31.1812C115.179 31.1749 115.768 31.0944 116.339 30.9416C116.9 30.805 117.441 30.6021 117.951 30.3375V27.9788C117.497 27.9012 117.044 27.8472 116.597 27.81C116.15 27.7729 115.669 27.7527 115.185 27.7527Z" fill="#131947"/>
  <path d="M126.977 33.7285H123.664V19.893H126.719L126.864 21.0167H126.949C127.623 20.6173 128.341 20.2968 129.09 20.0618C129.772 19.8442 130.484 19.7304 131.2 19.7243H131.585C131.639 19.7209 131.694 19.7302 131.743 19.7513V22.8896C131.599 22.8474 131.45 22.8235 131.3 22.8187C131.118 22.8187 130.812 22.8187 130.372 22.8187C129.75 22.8154 129.128 22.8719 128.516 22.9875C127.986 23.0865 127.469 23.2462 126.977 23.4633V33.7285Z" fill="#131947"/>
  <path d="M137.083 28.0232V33.7126H133.773V15.0752H137.083V25.4046H138.282L142.506 19.8805H146.444L141.049 26.5789L146.729 33.7261H142.647L138.31 28.0367L137.083 28.0232Z" fill="#131947"/>
  <path fillRule="evenodd" clipRule="evenodd" d="M158.892 15.2907C158.892 15.2907 161.318 15.5438 163.016 17.0286C164.713 18.5134 165.146 18.8036 166.263 18.9723C167.38 19.141 168.012 19.3874 167.59 19.9847C167.167 20.5819 165.985 21.8474 162.531 21.0746C159.077 20.3019 158.672 17.8452 158.6 17.3188C158.527 16.7924 158.345 15.1895 158.892 15.2907Z" fill="#6AC0FD"/>
  <path fillRule="evenodd" clipRule="evenodd" d="M156.531 10.7785C156.531 10.7785 154.218 11.0013 153.438 10.4411C152.658 9.88092 153.225 9.06091 152.157 8.00807C151.088 6.95523 149.569 6.18584 149.476 4.76517C149.403 3.41795 149.469 2.06695 149.672 0.732643C149.802 0.233217 150.703 -0.0164961 151.442 0.540297C152.181 1.09709 156.026 3.33776 156.287 4.07677C156.603 4.96089 158.153 4.65381 157.889 5.88213C157.662 6.99572 155.847 8.20716 156.531 10.7785Z" fill="#6AC0FD"/>
  <path fillRule="evenodd" clipRule="evenodd" d="M157.917 9.90376C157.917 9.90376 157.773 6.9477 158.642 6.28292C159.512 5.61814 161.319 3.43484 162.333 2.36512C163.347 1.2954 164.962 -0.165759 166.247 0.0400859C167.533 0.245931 167.966 0.404533 168.368 0.816223C168.77 1.22791 169.21 1.52149 167.979 1.76108C166.749 2.00067 165.402 2.00405 164.667 2.96915C163.931 3.93426 162.209 4.94999 161.625 7.0928C161.041 9.23561 160.505 11.0781 159.735 10.9971C159.735 10.9971 157.91 10.4268 157.917 9.90376Z" fill="#6AC0FD"/>
  <path fillRule="evenodd" clipRule="evenodd" d="M161.285 9.90348C162.336 8.83376 161.381 9.29607 163.787 8.45244C166.192 7.60882 167.539 5.82033 167.687 5.22642C167.835 4.63251 168.605 2.98912 169.577 2.86427C170.55 2.73941 172.309 3.35019 171.955 5.13868C171.7 6.20758 171.189 7.2017 170.467 8.03939C169.744 8.87708 168.829 9.53444 167.797 9.95747C165.522 10.8483 164.216 11.3275 162.642 11.3073C161.068 11.287 160.233 10.9766 161.285 9.90348Z" fill="#6AC0FD"/>
  <path fillRule="evenodd" clipRule="evenodd" d="M160.835 13.7891C160.632 13.5798 160.526 13.1817 161.179 12.7261C162.23 12.0006 164.272 11.1536 167.33 12.3043C170.389 13.455 172.557 14.2682 171.653 15.1321C169.622 17.0691 169.64 17.771 170.739 19.1815C171.77 20.4976 169.636 20.9194 169.636 20.9194C169.636 20.9194 168.53 21.1725 168.1 19.6641C167.67 18.1557 167.413 16.2288 166.406 15.699C163.818 14.3324 161.182 14.1501 160.835 13.7891Z" fill="#6AC0FD"/>
  <path fillRule="evenodd" clipRule="evenodd" d="M155.368 15.9012C155.038 15.7971 154.684 15.7898 154.349 15.8803C154.015 15.9708 153.715 16.1552 153.485 16.4108C152.825 17.0857 150.392 19.3837 150.049 22.6873C149.705 25.991 151.272 25.5759 152.031 25.532C152.791 25.4882 153.282 25.532 153.485 25.9707C153.688 26.4094 154.616 26.2609 155.166 25.5793C156.02 24.5934 156.939 23.6623 157.915 22.7919C158.664 22.1407 159.063 20.2104 158.647 19.1745C158.303 18.3241 158.028 18.1857 157.96 18.1621C157.942 18.1621 157.935 18.1621 157.932 18.1621C157.929 18.1621 156.681 18.3916 156.142 20.0181C155.602 21.6446 154.557 23.2138 154.128 23.2745C153.698 23.3352 152.286 23.8178 152.653 22.7312C153.021 21.6446 154.695 20.369 155.379 19.5254C156.063 18.6818 156.667 17.8753 156.609 16.9271C156.551 15.9788 155.368 15.9012 155.368 15.9012Z" fill="#6AC0FD"/>
  <path fillRule="evenodd" clipRule="evenodd" d="M149.281 15.7313C148.164 15.3635 146.727 14.8945 146.188 14.2668C145.648 13.6392 144.624 10.7303 145.463 10.3355C146.301 9.9407 146.428 9.45814 147.525 9.92045C148.621 10.3828 149.243 10.1668 150.418 10.3355C151.559 10.4979 152.667 10.8326 153.703 11.3276L154.274 11.6651C154.274 11.6651 155.429 12.4041 154.274 12.5964C153.119 12.7888 152.116 12.4783 151.298 12.7247C150.48 12.971 149.559 13.575 150.666 13.6965C151.772 13.818 152.803 13.3051 153.229 13.6358C153.655 13.9665 154.456 14.3107 153.484 14.9856C152.377 15.8056 150.38 16.1025 149.281 15.7313Z" fill="#6AC0FD"/>
  <path fillRule="evenodd" clipRule="evenodd" d="M155.536 12.5068C155.274 12.8443 154.907 13.4314 154.931 13.8566C155.022 14.3535 155.261 14.8127 155.618 15.176C155.995 15.3631 156.423 15.4247 156.838 15.3515C157.278 15.2353 157.703 15.0724 158.106 14.8656C158.518 14.562 158.888 14.2069 159.206 13.8094C159.505 13.3921 159.684 12.9039 159.725 12.3955C159.69 12.058 159.725 11.5788 159.268 11.2819C158.891 11.0554 158.464 10.9233 158.024 10.8972C156.608 10.8398 155.725 12.274 155.536 12.5068Z" fill="#6AC0FD"/>
</svg>