<svg width="24" height="24" viewBox="0 0 24 24" fill="none" xmlns="http://www.w3.org/2000/svg">
  <path d="M3.54167 8.36279V8.52042L3.66351 8.62044L10.4017 14.1516C11.3333 14.9167 12.6706 14.9167 13.6022 14.1516L13.6022 14.1516L20.3366 8.62038L20.4583 8.52037V8.36279V7.49951C20.4583 6.97167 20.0278 6.54118 19.5 6.54118H4.5C3.97216 6.54118 3.54167 6.97167 3.54167 7.49951V8.36279ZM4.08653 10.531L3.54167 10.0836V10.7886V17.4995C3.54167 18.0274 3.97216 18.4578 4.5 18.4578H19.5C20.0278 18.4578 20.4583 18.0274 20.4583 17.4995V10.7886V10.0836L19.9135 10.531L14.3667 15.0855C14.3667 15.0856 14.3666 15.0856 14.3666 15.0856C12.9893 16.2153 11.0065 16.2149 9.63361 15.0858L9.63341 15.0856L4.08653 10.531ZM2.33333 7.49951C2.33333 6.3047 3.30519 5.33285 4.5 5.33285H19.5C20.6948 5.33285 21.6667 6.3047 21.6667 7.49951V17.4995C21.6667 18.6943 20.6948 19.6662 19.5 19.6662H4.5C3.30519 19.6662 2.33333 18.6943 2.33333 17.4995V7.49951Z" fill="#070B25" stroke="#070B25" strokeWidth="0.666667"/>
</svg>